<svg width="768" height="758" viewBox="86.28 -0.06 28.81 28.44" fill="none" xmlns="http://www.w3.org/2000/svg">
<path d="M96.5958 0.378624H96.6113H96.5803H96.5958ZM101.897 0.00980801C100.11 -0.00375133 98.325 0.121516 96.5571 0.384509H96.5262H96.5668C94.5562 0.776865 94.1251 1.90881 94.1251 1.90881C93.6031 2.97406 94.6007 5.8775 96.6093 9.31454C99.1449 8.95745 101.704 8.79742 104.263 8.83586C107.936 8.92022 110.063 9.3832 111.001 9.95996C111.938 10.5367 111.654 11.6412 111.54 11.9433C112.226 10.7094 113.684 7.79023 114.115 6.02463C114.546 4.25903 114.177 3.48412 114.098 3.29187C113.834 2.62433 113.351 2.06984 112.731 1.72244C110.734 0.712126 107.511 0.321732 105.406 0.153019C104.315 0.0523139 103.19 0.00130785 102.03 0L101.897 0.00980801Z" fill="url(#paint0_linear)"/>
<path d="M96.5786 0.382751C96.5591 0.384904 96.5397 0.38818 96.5206 0.392561C90.8658 1.17727 88.4008 2.94288 87.4342 3.91396C87.0812 4.28323 86.8041 4.72001 86.6189 5.19891C86.4337 5.67781 86.3441 6.18929 86.3554 6.70361C86.4289 8.92239 87.759 12.0004 88.366 13.2481C89.406 15.325 90.601 17.3181 91.9407 19.21C93.2738 21.0597 94.7685 22.7839 96.4065 24.3616C97.7598 25.623 99.6196 27.2297 101.149 28.0321C101.772 28.3339 102.453 28.492 103.144 28.4951C104.149 28.4557 105.108 28.056 105.851 27.3671C107.285 26.0507 108.689 23.5337 109.667 21.8623C111.163 19.2982 112.399 16.2771 113.007 14.6429C113.468 13.4227 114.747 9.65021 115.111 6.89783C115.255 5.86676 115.121 4.81545 114.724 3.85511C114.53 3.38328 114.256 2.94969 113.914 2.57406C113.581 2.21708 113.183 1.92981 112.741 1.72853C113.361 2.07593 113.844 2.63042 114.108 3.29796C114.187 3.49414 114.56 4.26708 114.125 6.03072C113.69 7.79436 112.242 10.6978 111.552 11.9396V11.9514C111.384 12.2555 107.424 19.3277 105.526 19.3061C103.627 19.2845 99.4669 13.6483 98.4461 12.1711C97.7695 11.2 97.1586 10.2427 96.6211 9.32063C94.6144 5.88751 93.6168 2.98407 94.1388 1.91883C94.1388 1.91883 94.5718 0.773147 96.5921 0.394523L96.5786 0.382751ZM96.6056 0.382751H96.5921C96.5978 0.383968 96.6038 0.383968 96.6095 0.382751H96.6056Z" fill="url(#paint1_linear)"/>
<defs>
<linearGradient id="paint0_linear" x1="91.8113" y1="8.79735" x2="112.118" y2="8.74496" gradientUnits="userSpaceOnUse">
<stop stop-color="#034C2D"/>
<stop offset="0.26" stop-color="#286A31"/>
<stop offset="0.84" stop-color="#87B73D"/>
<stop offset="0.91" stop-color="#92C03E"/>
<stop offset="1" stop-color="#92C03E"/>
</linearGradient>
<linearGradient id="paint1_linear" x1="88.2033" y1="3.38473" x2="110.776" y2="21.9511" gradientUnits="userSpaceOnUse">
<stop stop-color="#92C03E"/>
<stop offset="0.1" stop-color="#92C03E"/>
<stop offset="0.46" stop-color="#548E37"/>
<stop offset="0.82" stop-color="#1A5F30"/>
<stop offset="1" stop-color="#034C2D"/>
</linearGradient>
</defs>
</svg>
